<svg width="45" height="45" viewBox="0 0 45 45" fill="none" xmlns="http://www.w3.org/2000/svg">
<mask id="mask0_144_93" style="mask-type:alpha" maskUnits="userSpaceOnUse" x="0" y="0" width="45" height="45">
<path d="M36.18 14.175C35.955 6.97498 29.925 0.989982 22.725 0.899982C19.035 0.854982 15.525 2.24998 12.915 4.81498C10.305 7.42498 8.82 10.89 8.82 14.58C8.82 17.73 9.9 20.745 11.88 23.175C14.13 25.965 15.615 29.16 16.2 32.49C15.93 32.58 15.705 32.76 15.525 32.94C15.12 33.345 14.895 33.885 14.895 34.47C14.895 35.145 15.21 35.775 15.75 36.18C15.66 36.225 15.615 36.27 15.525 36.36C15.12 36.765 14.895 37.305 14.895 37.89C14.895 39.06 15.84 40.05 17.055 40.05H18C18.18 42.3 20.115 44.1 22.5 44.1C24.885 44.1 26.82 42.3 27.045 40.005H27.99C28.575 40.005 29.115 39.78 29.52 39.375C29.925 38.97 30.15 38.43 30.15 37.845C30.15 37.17 29.835 36.54 29.295 36.135C29.385 36.09 29.43 36.045 29.52 35.955C29.925 35.55 30.15 35.01 30.15 34.425C30.15 33.525 29.61 32.805 28.845 32.445C29.475 29.115 31.005 25.83 33.21 23.04C35.235 20.565 36.27 17.415 36.18 14.175ZM22.5 43.2C20.61 43.2 19.08 41.805 18.855 40.005H26.145C25.92 41.805 24.39 43.2 22.5 43.2ZM29.25 37.845C29.2463 38.1661 29.1171 38.4729 28.89 38.7C28.663 38.927 28.3561 39.0562 28.035 39.06H17.055C16.38 39.06 15.795 38.52 15.795 37.8C15.795 37.485 15.93 37.17 16.155 36.9C16.38 36.675 16.695 36.54 17.01 36.54H27.99C28.665 36.63 29.25 37.17 29.25 37.845ZM29.25 34.47C29.2463 34.7911 29.1171 35.0979 28.89 35.325C28.663 35.552 28.3561 35.6812 28.035 35.685H17.01C16.335 35.685 15.75 35.145 15.75 34.425C15.75 34.11 15.885 33.795 16.11 33.525C16.335 33.3 16.65 33.165 16.965 33.165H27.945C28.665 33.21 29.25 33.795 29.25 34.47ZM27.945 32.31H17.055C16.425 28.845 14.895 25.515 12.555 22.59C10.71 20.34 9.72 17.46 9.72 14.535C9.72 11.07 11.07 7.87498 13.545 5.44498C15.975 3.05998 19.215 1.75498 22.68 1.79998C29.43 1.88998 35.055 7.46998 35.28 14.175C35.37 17.19 34.38 20.16 32.49 22.5C30.195 25.47 28.62 28.845 27.945 32.31Z" fill="black"/>
<path d="M30.69 12.78L28.755 12.285C28.71 12.285 28.665 12.24 28.665 12.195C28.62 12.06 28.53 11.88 28.485 11.745V11.61L29.475 9.89997C29.7 9.49497 29.655 8.99997 29.295 8.63997L28.35 7.64997C28.035 7.33497 27.495 7.24497 27.09 7.46997L25.38 8.45997C25.335 8.45997 25.29 8.50497 25.245 8.45997C25.065 8.36997 24.93 8.32497 24.75 8.23497C24.705 8.23497 24.705 8.18997 24.66 8.14497L24.165 6.29997C24.03 5.84997 23.625 5.53497 23.175 5.53497H21.825C21.375 5.53497 20.925 5.84997 20.835 6.29997L20.34 8.18997C20.34 8.23497 20.25 8.27997 20.25 8.27997C20.115 8.32497 19.935 8.41497 19.8 8.45997C19.755 8.45997 19.71 8.50497 19.665 8.45997L17.955 7.46997C17.55 7.24497 17.055 7.28997 16.695 7.64997L15.75 8.59497C15.435 8.90997 15.345 9.44997 15.57 9.85497L16.56 11.565C16.605 11.61 16.56 11.655 16.56 11.7C16.47 11.835 16.425 12.015 16.38 12.15C16.38 12.195 16.335 12.24 16.29 12.24L14.4 12.735C13.95 12.87 13.635 13.275 13.635 13.725V15.075C13.635 15.525 13.95 15.975 14.4 16.065L16.29 16.56C16.335 16.56 16.38 16.605 16.38 16.65C16.425 16.785 16.515 16.965 16.56 17.1C16.56 17.145 16.605 17.19 16.56 17.235L15.57 18.945C15.345 19.35 15.39 19.845 15.75 20.205L16.695 21.15C17.01 21.465 17.55 21.555 17.955 21.33L19.665 20.34C19.71 20.295 19.8 20.34 19.8 20.34C19.935 20.43 20.115 20.475 20.25 20.52C20.295 20.52 20.34 20.565 20.34 20.61L20.835 22.5C20.97 22.95 21.375 23.265 21.825 23.265H23.175C23.625 23.265 24.075 22.95 24.165 22.5L24.66 20.61C24.66 20.565 24.705 20.52 24.75 20.52C24.93 20.475 25.11 20.385 25.245 20.295H25.38L27.09 21.285C27.495 21.51 27.99 21.465 28.35 21.105L29.295 20.16C29.61 19.845 29.7 19.305 29.475 18.9L28.485 17.19V17.055C28.575 16.92 28.62 16.74 28.665 16.605C28.665 16.56 28.71 16.515 28.755 16.515L30.69 16.02C31.14 15.885 31.455 15.48 31.455 15.03V13.68C31.455 13.32 31.14 12.915 30.69 12.78ZM30.555 15.165C30.555 15.21 30.51 15.3 30.465 15.3L28.53 15.795C28.215 15.885 27.945 16.11 27.81 16.425C27.765 16.56 27.72 16.695 27.63 16.83C27.495 17.145 27.495 17.505 27.675 17.775L28.665 19.485C28.71 19.53 28.665 19.62 28.665 19.665L27.72 20.61C27.675 20.655 27.63 20.655 27.54 20.61L25.83 19.62C25.515 19.44 25.2 19.44 24.885 19.575C24.75 19.62 24.615 19.71 24.435 19.755C24.12 19.89 23.895 20.115 23.805 20.475L23.31 22.365C23.31 22.41 23.22 22.455 23.175 22.455H21.825C21.78 22.455 21.69 22.41 21.69 22.365L21.195 20.475C21.105 20.16 20.88 19.89 20.52 19.755C20.385 19.71 20.25 19.665 20.115 19.575C19.98 19.53 19.8 19.485 19.665 19.485C19.485 19.485 19.305 19.53 19.17 19.62L17.46 20.61C17.415 20.655 17.325 20.61 17.28 20.61L16.335 19.665C16.29 19.62 16.29 19.575 16.335 19.485L17.325 17.775C17.505 17.505 17.505 17.145 17.37 16.83C17.325 16.695 17.235 16.56 17.19 16.425C17.055 16.11 16.785 15.84 16.47 15.795L14.535 15.3C14.49 15.3 14.445 15.21 14.445 15.165V13.815C14.445 13.77 14.49 13.68 14.535 13.68L16.425 13.185C16.74 13.095 17.01 12.87 17.145 12.51C17.19 12.375 17.235 12.24 17.325 12.105C17.46 11.79 17.46 11.43 17.28 11.16L16.29 9.44997C16.245 9.40497 16.29 9.31497 16.29 9.26997L17.235 8.32497C17.28 8.27997 17.325 8.27997 17.415 8.32497L19.125 9.31497C19.395 9.49497 19.755 9.49497 20.07 9.35997C20.205 9.31497 20.34 9.22497 20.475 9.17997C20.79 9.04497 21.06 8.77497 21.15 8.45997L21.645 6.56997C21.645 6.52497 21.735 6.47997 21.78 6.47997H23.13C23.175 6.47997 23.265 6.52497 23.265 6.56997L23.76 8.45997C23.85 8.77497 24.075 9.04497 24.39 9.17997C24.525 9.22497 24.66 9.31497 24.84 9.35997C25.155 9.49497 25.515 9.49497 25.785 9.31497L27.495 8.32497C27.54 8.27997 27.63 8.32497 27.675 8.32497L28.62 9.26997C28.665 9.31497 28.665 9.35997 28.62 9.44997L27.63 11.16C27.45 11.43 27.45 11.79 27.585 12.105C27.63 12.24 27.72 12.375 27.765 12.51C27.9 12.825 28.17 13.095 28.485 13.14L30.42 13.635C30.465 13.635 30.51 13.725 30.51 13.77V15.165H30.555Z" fill="black"/>
<path d="M22.5 10.8C20.475 10.8 18.81 12.465 18.81 14.49C18.81 16.515 20.475 18.18 22.5 18.18C24.525 18.18 26.19 16.515 26.19 14.49C26.19 12.465 24.525 10.8 22.5 10.8ZM22.5 17.235C20.97 17.235 19.71 15.975 19.71 14.445C19.71 12.915 20.97 11.7 22.5 11.7C24.03 11.7 25.29 12.96 25.29 14.49C25.29 16.02 24.03 17.235 22.5 17.235Z" fill="black"/>
</mask>
<g mask="url(#mask0_144_93)">
<ellipse cx="27.5" cy="22.5" rx="44.5" ry="45.5" fill="url(#paint0_linear_144_93)"/>
</g>
<defs>
<linearGradient id="paint0_linear_144_93" x1="-17" y1="22.5" x2="72" y2="22.5" gradientUnits="userSpaceOnUse">
<stop stop-color="#5EE7DF"/>
<stop offset="1" stop-color="#B490CA"/>
</linearGradient>
</defs>
</svg>
