<svg width="45" height="45" viewBox="0 0 45 45" fill="none" xmlns="http://www.w3.org/2000/svg">
<mask id="mask0_144_65" style="mask-type:alpha" maskUnits="userSpaceOnUse" x="0" y="0" width="45" height="45">
<path d="M0.75 27.931C0.336 27.931 0 27.5834 0 27.1552V2.32759C0 1.04431 1.0095 0 2.25 0H42.75C43.9905 0 45 1.04431 45 2.32759V4.65517C45 5.08345 44.664 5.43103 44.25 5.43103C43.836 5.43103 43.5 5.08345 43.5 4.65517V2.32759C43.5 1.90086 43.1625 1.55172 42.75 1.55172H2.25C1.8375 1.55172 1.5 1.90086 1.5 2.32759V27.1552C1.5 27.5834 1.164 27.931 0.75 27.931Z" fill="#263238"/>
<path d="M22.5 45H14.25C13.836 45 13.5 44.6524 13.5 44.2241C13.5 43.7959 13.836 43.4483 14.25 43.4483H15.75C16.9905 43.4483 18 42.404 18 41.1207V37.2414C18 36.8131 18.336 36.4655 18.75 36.4655C19.164 36.4655 19.5 36.8131 19.5 37.2414V41.1207C19.5 41.9943 19.2195 42.7997 18.7485 43.4483H22.5C22.914 43.4483 23.25 43.7959 23.25 44.2241C23.25 44.6524 22.914 45 22.5 45Z" fill="#263238"/>
<path d="M21.75 37.2414H2.25C1.0095 37.2414 0 36.1971 0 34.9138V30.2587C0 29.8304 0.336 29.4828 0.75 29.4828H21.75C22.164 29.4828 22.5 29.8304 22.5 30.2587C22.5 30.6869 22.164 31.0345 21.75 31.0345H1.5V34.9138C1.5 35.3405 1.8375 35.6897 2.25 35.6897H21.75C22.164 35.6897 22.5 36.0373 22.5 36.4655C22.5 36.8938 22.164 37.2414 21.75 37.2414Z" fill="#263238"/>
<path d="M30.75 10.8621H38.25C38.664 10.8621 39 10.5145 39 10.0862C39 9.65795 38.664 9.31036 38.25 9.31036H30.75C30.336 9.31036 30 9.65795 30 10.0862C30 10.5145 30.336 10.8621 30.75 10.8621Z" fill="#263238"/>
<path d="M33.75 41.8966H35.25C35.664 41.8966 36 41.549 36 41.1207C36 40.6924 35.664 40.3448 35.25 40.3448H33.75C33.336 40.3448 33 40.6924 33 41.1207C33 41.549 33.336 41.8966 33.75 41.8966Z" fill="#263238"/>
<path d="M41.25 45H27.75C25.6815 45 24 43.2605 24 41.1207V10.0862C24 7.94639 25.6815 6.20691 27.75 6.20691H41.25C43.3185 6.20691 45 7.94639 45 10.0862V41.1207C45 43.2605 43.3185 45 41.25 45ZM27.75 7.75863C26.5095 7.75863 25.5 8.80294 25.5 10.0862V41.1207C25.5 42.404 26.5095 43.4483 27.75 43.4483H41.25C42.4905 43.4483 43.5 42.404 43.5 41.1207V10.0862C43.5 8.80294 42.4905 7.75863 41.25 7.75863H27.75Z" fill="#263238"/>
</mask>
<g mask="url(#mask0_144_65)">
<ellipse cx="22.5" cy="-3.10343" rx="75" ry="77.5862" fill="url(#paint0_linear_144_65)"/>
</g>
<defs>
<linearGradient id="paint0_linear_144_65" x1="-52.5" y1="-3.10343" x2="97.5" y2="-3.10343" gradientUnits="userSpaceOnUse">
<stop stop-color="#5EE7DF"/>
<stop offset="1" stop-color="#B490CA"/>
</linearGradient>
</defs>
</svg>
