<svg width="52" height="52" viewBox="0 0 52 52" fill="none" xmlns="http://www.w3.org/2000/svg">
<mask id="mask0_144_100" style="mask-type:alpha" maskUnits="userSpaceOnUse" x="0" y="0" width="52" height="52">
<g clip-path="url(#clip0_144_100)">
<path d="M47.7506 30.1763C47.645 30.1763 47.5438 30.1343 47.4691 30.0596C47.3944 29.985 47.3525 29.8837 47.3525 29.7781V12.7238C47.3525 12.0088 46.7756 11.4238 46.0606 11.4238H14.885C14.7794 11.4238 14.6781 11.3818 14.6035 11.3071C14.5288 11.2325 14.4869 11.1312 14.4869 11.0256C14.4869 10.92 14.5288 10.8188 14.6035 10.7441C14.6781 10.6694 14.7794 10.6275 14.885 10.6275H46.0606C47.2144 10.6275 48.1487 11.57 48.1487 12.7238V29.7781C48.1487 29.9975 47.97 30.1763 47.7506 30.1763ZM2.70562 38.1875C2.60003 38.1875 2.49877 38.1456 2.4241 38.0709C2.34944 37.9962 2.3075 37.895 2.3075 37.7894V12.7238C2.3075 11.57 3.24187 10.6275 4.39562 10.6275H9.51437C9.61996 10.6275 9.72122 10.6694 9.79589 10.7441C9.87055 10.8188 9.91249 10.92 9.91249 11.0256C9.91249 11.1312 9.87055 11.2325 9.79589 11.3071C9.72122 11.3818 9.61996 11.4238 9.51437 11.4238H4.39562C3.68875 11.4238 3.10375 12.0088 3.10375 12.7238V37.7894C3.10375 38.0088 2.925 38.1875 2.70562 38.1875ZM47.7506 38.1875C47.6983 38.1875 47.6466 38.1772 47.5983 38.1572C47.55 38.1372 47.5061 38.1079 47.4691 38.0709C47.4321 38.0339 47.4028 37.99 47.3828 37.9417C47.3628 37.8934 47.3525 37.8417 47.3525 37.7894V34.9375C47.3525 34.8319 47.3944 34.7306 47.4691 34.656C47.5438 34.5813 47.645 34.5394 47.7506 34.5394C47.8562 34.5394 47.9575 34.5813 48.0321 34.656C48.1068 34.7306 48.1487 34.8319 48.1487 34.9375V37.7894C48.1487 38.0088 47.97 38.1875 47.7506 38.1875Z" fill="black"/>
<path d="M47.6775 44.1269H2.77875C1.25125 44.1269 0 42.8756 0 41.3481V37.7813C0 37.5619 0.17875 37.3831 0.398125 37.3831H17.0381C17.2087 37.3831 17.3631 37.4888 17.4119 37.6513L18.0456 39.4469H32.4025L33.0363 37.6513C33.0931 37.4888 33.2475 37.3831 33.41 37.3831H50.05C50.2694 37.3831 50.4481 37.5619 50.4481 37.7813V41.34C50.4493 41.705 50.3786 42.0666 50.2399 42.4041C50.1013 42.7417 49.8975 43.0487 49.6402 43.3075C49.3829 43.5663 49.0772 43.7719 48.7404 43.9125C48.4036 44.0531 48.0424 44.1259 47.6775 44.1269ZM0.79625 38.1875V41.3481C0.79625 42.4369 1.68187 43.3306 2.77875 43.3306H47.6694C48.7581 43.3306 49.6519 42.445 49.6519 41.3481V38.1875H33.7025L33.0688 39.9831C33.0119 40.1456 32.8575 40.2513 32.695 40.2513H17.7612C17.5906 40.2513 17.4362 40.1456 17.3875 39.9831L16.7537 38.1875H0.79625ZM12.9269 16.38C12.8354 16.3789 12.7468 16.3474 12.675 16.2906L10.4081 14.4219L7.49125 14.0725C7.4194 14.0637 7.35126 14.0357 7.29405 13.9914C7.23684 13.947 7.19268 13.888 7.16625 13.8206C7.13814 13.7536 7.12934 13.68 7.14082 13.6082C7.15231 13.5365 7.18363 13.4693 7.23125 13.4144L9.1 11.1475L9.44938 8.22251C9.46562 8.07626 9.56312 7.95439 9.70125 7.89751C9.76829 7.86941 9.84186 7.8606 9.91364 7.87209C9.98543 7.88357 10.0526 7.91489 10.1075 7.96251L12.3744 9.83126L15.2994 10.1806C15.4456 10.1969 15.5675 10.2944 15.6244 10.4325C15.6812 10.5706 15.6569 10.725 15.5594 10.8388L13.6906 13.1056L13.3413 16.0225C13.325 16.1688 13.2275 16.2906 13.0894 16.3475C13.0325 16.3719 12.9838 16.38 12.9269 16.38ZM8.30375 13.3575L10.6112 13.6338C10.6844 13.6419 10.7575 13.6744 10.8144 13.7231L12.61 15.2019L12.8862 12.8944C12.8944 12.8213 12.9269 12.7481 12.9756 12.6913L14.4544 10.8956L12.1469 10.6194C12.0718 10.6103 12.0012 10.5792 11.9437 10.53L10.1481 9.05126L9.87187 11.3588C9.86375 11.4319 9.83125 11.505 9.7825 11.5619L8.30375 13.3575ZM49.2863 36.6194C49.1947 36.6182 49.1062 36.5868 49.0344 36.53L46.7675 34.6613L43.8506 34.3119C43.7788 34.3031 43.7106 34.2751 43.6534 34.2307C43.5962 34.1864 43.5521 34.1274 43.5256 34.06C43.4975 33.993 43.4887 33.9194 43.5002 33.8476C43.5117 33.7758 43.543 33.7087 43.5906 33.6538L45.4594 31.3869L45.8088 28.4619C45.825 28.3156 45.9225 28.1938 46.0606 28.1369C46.1277 28.1088 46.2012 28.1 46.273 28.1115C46.3448 28.1229 46.4119 28.1543 46.4669 28.2019L48.7337 30.0706L51.6588 30.42C51.805 30.4363 51.9269 30.5338 51.9837 30.6719C52.0406 30.81 52.0163 30.9644 51.9188 31.0781L50.05 33.345L49.7006 36.27C49.6844 36.4163 49.5869 36.5381 49.4487 36.595C49.3919 36.6031 49.335 36.6194 49.2863 36.6194ZM44.6631 33.5969L46.9706 33.8731C47.0438 33.8813 47.1169 33.9138 47.1738 33.9625L48.9694 35.4413L49.2456 33.1338C49.2537 33.0606 49.2862 32.9875 49.335 32.9306L50.8138 31.135L48.5063 30.8588C48.4312 30.8496 48.3605 30.8185 48.3031 30.7694L46.5075 29.2906L46.2313 31.5981C46.2231 31.6713 46.1906 31.7444 46.1419 31.8013L44.6631 33.5969ZM19.0125 31.8256C18.9573 31.8259 18.9027 31.8144 18.8523 31.792C18.8019 31.7696 18.7568 31.7368 18.72 31.6956L13.8612 26.4794C13.3575 25.935 13.3575 25.0819 13.8612 24.5375L18.72 19.3213C18.8744 19.1588 19.1262 19.1506 19.2887 19.305C19.4513 19.4594 19.4594 19.7113 19.3131 19.8738L14.4544 25.09C14.235 25.3256 14.235 25.6994 14.4544 25.9431L19.3131 31.1594C19.4594 31.3219 19.4513 31.5738 19.2887 31.7281C19.2075 31.7931 19.11 31.8256 19.0125 31.8256ZM31.4438 31.8256C31.3655 31.826 31.2888 31.8034 31.2232 31.7607C31.1577 31.7179 31.1061 31.6568 31.075 31.585C31.0438 31.5131 31.0345 31.4338 31.048 31.3567C31.0616 31.2796 31.0975 31.2081 31.1513 31.1513L36.01 25.935C36.2294 25.6994 36.2294 25.3256 36.01 25.0819L31.1513 19.8656C31.005 19.7031 31.0131 19.4513 31.1675 19.2969C31.33 19.1425 31.5819 19.1588 31.7363 19.3131L36.595 24.5294C37.0988 25.0738 37.0988 25.9269 36.595 26.4713L31.7363 31.6875C31.655 31.785 31.5494 31.8256 31.4438 31.8256ZM22.8231 32.8413C22.7744 32.8413 22.7256 32.8331 22.6769 32.8088C22.628 32.7895 22.5834 32.7606 22.5458 32.7239C22.5082 32.6872 22.4783 32.6433 22.4579 32.5949C22.4374 32.5465 22.4269 32.4944 22.4268 32.4419C22.4267 32.3893 22.4372 32.3372 22.4575 32.2888L27.7306 19.1913C27.8119 18.9881 28.0475 18.8906 28.2506 18.9719C28.4538 19.0531 28.5594 19.2888 28.47 19.4919L23.1969 32.5894C23.1319 32.7438 22.9856 32.8413 22.8231 32.8413Z" fill="black"/>
</g>
</mask>
<g mask="url(#mask0_144_100)">
<circle cx="27" cy="21" r="50" transform="rotate(0.306125 27 21)" fill="url(#paint0_linear_144_100)"/>
</g>
<defs>
<linearGradient id="paint0_linear_144_100" x1="-23" y1="21" x2="77" y2="21" gradientUnits="userSpaceOnUse">
<stop stop-color="#5EE7DF"/>
<stop offset="1" stop-color="#B490CA"/>
</linearGradient>
<clipPath id="clip0_144_100">
<rect width="52" height="52" fill="white"/>
</clipPath>
</defs>
</svg>
